<?xml version="1.0" standalone="no"?>
<!DOCTYPE svg PUBLIC "-//W3C//DTD SVG 20010904//EN"
        "http://www.w3.org/TR/2001/REC-SVG-20010904/DTD/svg10.dtd">
<svg version="1.0" xmlns="http://www.w3.org/2000/svg"
     width="500.000000pt" height="500.000000pt" viewBox="0 0 500.000000 500.000000"
     preserveAspectRatio="xMidYMid meet">
    <metadata>
        Created by potrace 1.11, written by Peter Selinger 2001-2013
    </metadata>
    <g transform="translate(0.000000,500.000000) scale(0.100000,-0.100000)"
       fill="#000000" stroke="none">
        <path d="M0 2500 l0 -2500 2500 0 2500 0 0 2500 0 2500 -2500 0 -2500 0 0
-2500z m2570 1740 c309 -104 565 -190 570 -190 4 0 37 52 74 115 68 116 94
145 130 145 27 0 56 -29 56 -54 -1 -35 -28 -85 -319 -575 -154 -261 -281 -478
-281 -483 0 -5 10 -6 23 -4 56 12 442 28 532 22 193 -13 469 -82 617 -157 153
-77 316 -211 404 -335 282 -394 169 -921 -292 -1364 -211 -203 -583 -449 -971
-644 l-112 -56 -68 26 c-37 15 -193 68 -346 119 l-278 93 -132 -58 c-259 -113
-530 -201 -746 -242 -163 -31 -429 -31 -544 0 -179 49 -308 145 -374 280 -36
71 -38 82 -38 167 0 85 2 96 37 166 75 151 248 280 440 329 176 44 427 50 648
15 52 -8 98 -15 102 -15 7 0 210 351 206 355 -2 2 -96 -4 -210 -13 -193 -14
-218 -14 -349 2 -336 41 -542 128 -674 286 -175 209 -161 532 32 741 62 66
181 145 273 179 l60 22 0 56 c0 145 96 369 240 562 77 103 230 267 363 388
110 101 356 312 362 312 2 0 255 -85 565 -190z"/>
        <path d="M1760 3964 c-157 -34 -310 -152 -361 -281 -35 -87 -34 -226 3 -305
53 -113 155 -191 294 -224 86 -20 384 -15 727 12 l228 18 130 228 c72 126 129
231 127 233 -13 13 -350 169 -451 209 -276 109 -523 148 -697 110z"/>
        <path d="M983 2956 c-27 -24 -62 -68 -78 -98 -26 -46 -30 -63 -30 -133 0 -140
63 -230 210 -301 134 -65 406 -101 655 -89 123 6 442 33 446 38 17 21 193 341
190 345 -3 2 -76 -3 -163 -12 -328 -36 -669 -32 -830 10 -134 34 -239 114
-298 227 -17 31 -35 57 -41 57 -7 0 -34 -20 -61 -44z"/>
        <path d="M2880 2770 c-52 -4 -152 -13 -222 -20 l-127 -13 -101 -175 c-55 -96
-99 -176 -98 -177 2 -2 92 5 201 15 635 58 828 50 1005 -39 78 -39 180 -135
216 -201 130 -238 34 -475 -276 -680 -65 -43 -213 -126 -329 -185 -116 -59
-209 -108 -207 -110 2 -1 117 -33 256 -70 l253 -68 82 56 c318 217 508 444
579 693 18 64 22 104 22 209 0 116 -3 139 -27 210 -91 261 -297 440 -599 520
-167 44 -367 55 -628 35z"/>
        <path d="M2925 1983 c-284 -30 -545 -55 -692 -65 l-180 -12 -111 -195 -111
-195 189 -47 c104 -26 302 -86 442 -134 139 -48 263 -89 275 -92 37 -9 265
113 400 215 144 107 208 203 208 314 0 58 -4 72 -30 109 -17 24 -53 57 -79 74
-47 28 -55 30 -160 31 -61 1 -129 0 -151 -3z"/>
        <path d="M963 1155 c-240 -52 -341 -238 -199 -363 80 -70 178 -100 351 -109
188 -9 386 26 647 115 129 44 368 144 368 154 0 3 -51 22 -112 42 -460 144
-855 204 -1055 161z"/>
    </g>
</svg>
